<mxfile host="app.diagrams.net" modified="2024-04-24T13:57:44.738Z" agent="Mozilla/5.0 (X11; Ubuntu; Linux x86_64; rv:124.0) Gecko/20100101 Firefox/124.0" etag="YkQwJdmFmbDG6iPuQ4sJ" version="24.3.0" type="github">
  <diagram name="Page-1" id="Eiru2IzGpOkCmMPd_Mnd">
    <mxGraphModel dx="724" dy="515" grid="1" gridSize="10" guides="1" tooltips="1" connect="1" arrows="1" fold="1" page="1" pageScale="1" pageWidth="850" pageHeight="1100" math="0" shadow="0">
      <root>
        <mxCell id="0" />
        <mxCell id="1" parent="0" />
        <mxCell id="O7wNL2qJg9v7cOQWat19-7" value="" style="edgeStyle=orthogonalEdgeStyle;rounded=0;orthogonalLoop=1;jettySize=auto;html=1;" edge="1" parent="1" source="O7wNL2qJg9v7cOQWat19-1" target="O7wNL2qJg9v7cOQWat19-6">
          <mxGeometry relative="1" as="geometry" />
        </mxCell>
        <mxCell id="O7wNL2qJg9v7cOQWat19-1" value="сеть TCP" style="whiteSpace=wrap;html=1;aspect=fixed;" vertex="1" parent="1">
          <mxGeometry x="40" y="40" width="80" height="80" as="geometry" />
        </mxCell>
        <mxCell id="O7wNL2qJg9v7cOQWat19-17" style="edgeStyle=orthogonalEdgeStyle;rounded=0;orthogonalLoop=1;jettySize=auto;html=1;exitX=1;exitY=0.5;exitDx=0;exitDy=0;entryX=0.5;entryY=1;entryDx=0;entryDy=0;" edge="1" parent="1" source="O7wNL2qJg9v7cOQWat19-2" target="O7wNL2qJg9v7cOQWat19-12">
          <mxGeometry relative="1" as="geometry" />
        </mxCell>
        <mxCell id="O7wNL2qJg9v7cOQWat19-2" value="&lt;div&gt;вводилка&lt;/div&gt;&lt;div&gt;формулы&lt;br&gt;&lt;/div&gt;" style="whiteSpace=wrap;html=1;aspect=fixed;" vertex="1" parent="1">
          <mxGeometry x="40" y="281" width="80" height="80" as="geometry" />
        </mxCell>
        <mxCell id="O7wNL2qJg9v7cOQWat19-18" style="edgeStyle=orthogonalEdgeStyle;rounded=0;orthogonalLoop=1;jettySize=auto;html=1;exitX=0.25;exitY=0;exitDx=0;exitDy=0;entryX=0.5;entryY=0;entryDx=0;entryDy=0;" edge="1" parent="1" source="O7wNL2qJg9v7cOQWat19-3" target="O7wNL2qJg9v7cOQWat19-5">
          <mxGeometry relative="1" as="geometry">
            <Array as="points">
              <mxPoint x="540" y="150" />
              <mxPoint x="80" y="150" />
            </Array>
          </mxGeometry>
        </mxCell>
        <mxCell id="O7wNL2qJg9v7cOQWat19-20" style="edgeStyle=orthogonalEdgeStyle;rounded=0;orthogonalLoop=1;jettySize=auto;html=1;exitX=0.5;exitY=1;exitDx=0;exitDy=0;entryX=0.5;entryY=1;entryDx=0;entryDy=0;" edge="1" parent="1" source="O7wNL2qJg9v7cOQWat19-3" target="O7wNL2qJg9v7cOQWat19-2">
          <mxGeometry relative="1" as="geometry" />
        </mxCell>
        <mxCell id="O7wNL2qJg9v7cOQWat19-21" style="edgeStyle=orthogonalEdgeStyle;rounded=0;orthogonalLoop=1;jettySize=auto;html=1;exitX=0.5;exitY=0;exitDx=0;exitDy=0;entryX=0.5;entryY=1;entryDx=0;entryDy=0;" edge="1" parent="1" source="O7wNL2qJg9v7cOQWat19-3" target="O7wNL2qJg9v7cOQWat19-1">
          <mxGeometry relative="1" as="geometry">
            <Array as="points">
              <mxPoint x="560" y="140" />
              <mxPoint x="80" y="140" />
            </Array>
          </mxGeometry>
        </mxCell>
        <mxCell id="O7wNL2qJg9v7cOQWat19-3" value="&lt;div&gt;вводилка&lt;/div&gt;&lt;div&gt;параметров&lt;br&gt;&lt;/div&gt;" style="whiteSpace=wrap;html=1;aspect=fixed;" vertex="1" parent="1">
          <mxGeometry x="520" y="161" width="80" height="80" as="geometry" />
        </mxCell>
        <mxCell id="O7wNL2qJg9v7cOQWat19-13" value="" style="edgeStyle=orthogonalEdgeStyle;rounded=0;orthogonalLoop=1;jettySize=auto;html=1;" edge="1" parent="1" source="O7wNL2qJg9v7cOQWat19-5" target="O7wNL2qJg9v7cOQWat19-12">
          <mxGeometry relative="1" as="geometry" />
        </mxCell>
        <mxCell id="O7wNL2qJg9v7cOQWat19-5" value="&lt;div&gt;вводилка&lt;/div&gt;&lt;div&gt;файла&lt;br&gt;&lt;/div&gt;" style="whiteSpace=wrap;html=1;aspect=fixed;" vertex="1" parent="1">
          <mxGeometry x="40" y="161" width="80" height="80" as="geometry" />
        </mxCell>
        <mxCell id="O7wNL2qJg9v7cOQWat19-9" value="" style="edgeStyle=orthogonalEdgeStyle;rounded=0;orthogonalLoop=1;jettySize=auto;html=1;" edge="1" parent="1" source="O7wNL2qJg9v7cOQWat19-6" target="O7wNL2qJg9v7cOQWat19-8">
          <mxGeometry relative="1" as="geometry" />
        </mxCell>
        <mxCell id="O7wNL2qJg9v7cOQWat19-16" style="edgeStyle=orthogonalEdgeStyle;rounded=0;orthogonalLoop=1;jettySize=auto;html=1;exitX=0;exitY=0.75;exitDx=0;exitDy=0;entryX=1;entryY=0.75;entryDx=0;entryDy=0;" edge="1" parent="1" source="O7wNL2qJg9v7cOQWat19-6" target="O7wNL2qJg9v7cOQWat19-1">
          <mxGeometry relative="1" as="geometry" />
        </mxCell>
        <mxCell id="O7wNL2qJg9v7cOQWat19-6" value="сериализатор" style="whiteSpace=wrap;html=1;aspect=fixed;" vertex="1" parent="1">
          <mxGeometry x="200" y="40" width="80" height="80" as="geometry" />
        </mxCell>
        <mxCell id="O7wNL2qJg9v7cOQWat19-11" value="" style="edgeStyle=orthogonalEdgeStyle;rounded=0;orthogonalLoop=1;jettySize=auto;html=1;" edge="1" parent="1" source="O7wNL2qJg9v7cOQWat19-8" target="O7wNL2qJg9v7cOQWat19-10">
          <mxGeometry relative="1" as="geometry" />
        </mxCell>
        <mxCell id="O7wNL2qJg9v7cOQWat19-8" value="&lt;div&gt;обратный&lt;/div&gt;&lt;div&gt;парсер&lt;/div&gt;" style="whiteSpace=wrap;html=1;aspect=fixed;" vertex="1" parent="1">
          <mxGeometry x="360" y="40" width="80" height="80" as="geometry" />
        </mxCell>
        <mxCell id="O7wNL2qJg9v7cOQWat19-10" value="выводилка" style="whiteSpace=wrap;html=1;aspect=fixed;" vertex="1" parent="1">
          <mxGeometry x="520" y="40" width="80" height="80" as="geometry" />
        </mxCell>
        <mxCell id="O7wNL2qJg9v7cOQWat19-15" value="" style="edgeStyle=orthogonalEdgeStyle;rounded=0;orthogonalLoop=1;jettySize=auto;html=1;entryX=0.5;entryY=1;entryDx=0;entryDy=0;" edge="1" parent="1" source="O7wNL2qJg9v7cOQWat19-12" target="O7wNL2qJg9v7cOQWat19-6">
          <mxGeometry relative="1" as="geometry">
            <mxPoint x="240" y="200" as="targetPoint" />
          </mxGeometry>
        </mxCell>
        <mxCell id="O7wNL2qJg9v7cOQWat19-12" value="прямой парсер" style="whiteSpace=wrap;html=1;aspect=fixed;" vertex="1" parent="1">
          <mxGeometry x="200" y="161" width="80" height="80" as="geometry" />
        </mxCell>
        <mxCell id="O7wNL2qJg9v7cOQWat19-24" value="" style="edgeStyle=orthogonalEdgeStyle;rounded=0;orthogonalLoop=1;jettySize=auto;html=1;" edge="1" parent="1" source="O7wNL2qJg9v7cOQWat19-22" target="O7wNL2qJg9v7cOQWat19-23">
          <mxGeometry relative="1" as="geometry" />
        </mxCell>
        <mxCell id="O7wNL2qJg9v7cOQWat19-22" value="&lt;div&gt;UDP &lt;br&gt;&lt;/div&gt;&lt;div&gt;обнаружение&lt;br&gt;&lt;/div&gt;" style="whiteSpace=wrap;html=1;aspect=fixed;" vertex="1" parent="1">
          <mxGeometry x="360" y="161" width="80" height="80" as="geometry" />
        </mxCell>
        <mxCell id="O7wNL2qJg9v7cOQWat19-26" value="" style="edgeStyle=orthogonalEdgeStyle;rounded=0;orthogonalLoop=1;jettySize=auto;html=1;" edge="1" parent="1" source="O7wNL2qJg9v7cOQWat19-23" target="O7wNL2qJg9v7cOQWat19-25">
          <mxGeometry relative="1" as="geometry" />
        </mxCell>
        <mxCell id="O7wNL2qJg9v7cOQWat19-23" value="&lt;div&gt;выводилка&lt;/div&gt;&lt;div&gt;доступных узлов&lt;br&gt;&lt;/div&gt;" style="whiteSpace=wrap;html=1;aspect=fixed;" vertex="1" parent="1">
          <mxGeometry x="360" y="281" width="80" height="80" as="geometry" />
        </mxCell>
        <mxCell id="O7wNL2qJg9v7cOQWat19-27" style="edgeStyle=orthogonalEdgeStyle;rounded=0;orthogonalLoop=1;jettySize=auto;html=1;exitX=1;exitY=0.5;exitDx=0;exitDy=0;entryX=0.75;entryY=1;entryDx=0;entryDy=0;" edge="1" parent="1" source="O7wNL2qJg9v7cOQWat19-25" target="O7wNL2qJg9v7cOQWat19-3">
          <mxGeometry relative="1" as="geometry" />
        </mxCell>
        <mxCell id="O7wNL2qJg9v7cOQWat19-25" value="консольный интерактив" style="whiteSpace=wrap;html=1;aspect=fixed;" vertex="1" parent="1">
          <mxGeometry x="360" y="400" width="80" height="80" as="geometry" />
        </mxCell>
        <mxCell id="O7wNL2qJg9v7cOQWat19-29" style="edgeStyle=orthogonalEdgeStyle;rounded=0;orthogonalLoop=1;jettySize=auto;html=1;entryX=1;entryY=0.5;entryDx=0;entryDy=0;" edge="1" parent="1" source="O7wNL2qJg9v7cOQWat19-28" target="O7wNL2qJg9v7cOQWat19-3">
          <mxGeometry relative="1" as="geometry" />
        </mxCell>
        <mxCell id="O7wNL2qJg9v7cOQWat19-28" value="парсер консольных аргументов" style="whiteSpace=wrap;html=1;aspect=fixed;" vertex="1" parent="1">
          <mxGeometry x="680" y="161" width="80" height="80" as="geometry" />
        </mxCell>
      </root>
    </mxGraphModel>
  </diagram>
</mxfile>
